<svg width="106" height="38" viewBox="0 0 106 38" fill="none" xmlns="http://www.w3.org/2000/svg">
<path d="M60.0945 0.411334C57.0604 1.10857 55.5536 2.69023 55.5387 5.1936C55.5216 8.10863 57.1721 9.4472 62.4646 10.8122C65.0371 11.4752 65.9114 12.6244 64.6946 13.7407C63.3135 15.0069 60.6109 14.1857 60.2706 12.3952C60.102 11.5016 60.1103 11.5042 57.2759 11.6602L54.7639 11.798L54.8848 12.5806C55.0709 13.787 56.077 15.6495 56.9347 16.3758C59.476 18.5268 66.4747 18.3063 68.8706 15.9979L69.5714 15.3228L69.7059 16.1075C70.1987 18.9948 73.1628 21.7075 76.5727 22.3926L77.6677 22.6132L77.0208 23.4517C74.8859 26.2181 74.8255 31.8757 76.8999 34.8141C80.0746 39.3099 89.0084 39.1795 91.948 34.5948L92.495 33.7416V37.811H106.341V33.4357H98.0719V20.6887H92.495L92.4841 22.6387C92.4745 24.2317 92.4311 24.5207 92.2441 24.2169C91.1845 22.4975 89.121 21.0688 87.0982 20.6558L86.008 20.4326L87.1145 19.6102C90.5564 17.0509 92.7 12.3817 92.1495 8.6438C90.7018 -1.17943 76.3993 -1.33153 70.9516 8.41717C70.6003 9.04463 70.3012 9.5785 70.2863 9.6032C70.2714 9.6279 69.7813 9.18893 69.1961 8.6295C67.9828 7.46687 67.0082 7.04133 63.6955 6.2297C60.6131 5.47397 59.9824 4.944 61.0183 3.97983C62.0038 3.06333 64.1497 3.657 64.6328 4.9804C64.9162 5.75563 64.8645 5.74827 68.1413 5.53377L70.0362 5.4094L69.9153 4.66233C69.3559 1.2013 64.953 -0.704933 60.0932 0.412634L60.0945 0.411334ZM1.15415 9.08277V17.6433H6.73097V10.794H7.29777C8.1922 10.794 8.73315 11.4449 10.4576 14.5991L12.0704 17.5471L15.1711 17.5995C16.8763 17.6285 18.2705 17.6008 18.2705 17.5384C18.2705 16.5742 14.7953 11.0107 13.8308 10.4309L13.3021 10.1128L14.3691 9.56073C18.3248 7.51193 17.5758 1.64243 13.2408 0.722467C12.6937 0.606767 9.92324 0.5201 6.72134 0.5201H1.15415V9.0806V9.08277ZM85.5888 2.0125C94.2922 4.25977 93.4955 16.3402 84.3519 20.7507C75.0361 25.2444 66.734 17.8673 71.1619 9.0312C73.7453 3.87583 80.3532 0.660934 85.5875 2.0138L85.5888 2.0125ZM10.5737 4.38067C12.5325 5.36043 11.2329 7.16917 8.45851 7.32517L6.73141 7.42267V4.13583L8.41427 4.13843C9.37747 4.13973 10.3004 4.2433 10.5737 4.3798V4.38067ZM82.5105 5.8943C80.9792 6.29643 79.422 7.8274 79.4207 8.93153C79.4181 10.7355 80.8758 11.3859 83.1692 10.6051C84.5722 10.1275 84.9296 10.1275 85.1894 10.6064C85.6291 11.4206 84.1876 12.2504 83.3466 11.6667C82.924 11.3742 81.3655 12.2968 81.3497 12.8489C81.3252 13.68 83.4513 13.9946 84.7535 13.3524C88.8893 11.3136 87.715 6.9369 83.4255 8.4007C81.7106 8.9857 81.3423 9.01127 81.3423 8.54067C81.3423 7.80227 82.5087 7.2684 83.0177 7.7715C83.2257 7.97733 84.8026 6.94297 84.8026 6.6002C84.8026 6.08843 83.4058 5.65683 82.5087 5.89343L82.5105 5.8943ZM76.3029 9.99927C75.3852 10.6562 75.3419 10.4855 77.0247 12.8489C78.0607 14.3027 78.4588 15.0207 78.4194 15.3609C78.3506 15.9424 77.6914 16.0971 77.228 15.64C76.9336 15.3488 76.857 15.3717 76.1601 15.9628C74.3997 17.4548 77.0756 18.7353 79.0637 17.3534C81.2481 15.835 81.2516 14.8929 79.0799 11.7556C77.3957 9.32153 77.3182 9.273 76.302 10.0006L76.3029 9.99927ZM5.71346 20.5024C2.56719 20.9934 0.72533 22.8134 0.700801 25.4554C0.676272 28.1512 2.44279 29.6869 6.81858 30.7702C9.50055 31.4345 10.3836 31.9415 10.3836 32.8151C10.3836 35.2756 5.93159 35.0295 5.46073 32.5434C5.29559 31.6759 5.31662 31.6807 2.47696 31.8328L-0.0411987 31.968L0.084512 32.748C0.658752 36.3238 2.76036 37.8119 7.44275 37.9571C11.1558 38.0715 12.4322 37.7157 14.0533 36.1119L15.1632 35.0139L15.571 35.5586C17.9302 38.715 25.8995 38.9273 28.5162 35.9022C29.2814 35.0186 30.1399 33.3538 30.2275 32.5872C30.2893 32.0473 30.2717 32.0377 27.9397 31.3379L25.5907 30.6324L25.2753 31.571C24.2008 34.7703 20.1444 34.8067 19.2534 31.6261C18.9503 30.5449 18.9871 27.9627 19.3222 26.8499C20.1303 24.1602 23.5438 23.6081 24.9288 25.9442C25.5066 26.9192 25.3515 26.901 27.973 26.3147C30.4688 25.7566 30.3615 25.8554 29.7925 24.6425C27.5354 19.8381 19.9481 18.711 15.9249 22.5802L14.8027 23.6601L14.3371 22.874C13.1768 20.9141 9.51676 19.9074 5.71609 20.5024H5.71346ZM58.844 20.5072C56.7139 20.8729 54.6097 22.1989 53.4209 23.9231C53.1029 24.3851 53.0946 24.3474 53.0845 22.5421L53.0744 20.687H47.4976V26.5847H41.9208V20.687H36.344V37.8093H41.9208V30.96H47.4976V37.8093H53.0744V33.9383L53.6767 34.8366C56.1826 38.578 63.9324 39.235 67.4593 36.004C71.5408 32.2661 70.7401 23.7628 66.0857 21.4133C64.2894 20.5063 61.137 20.1115 58.8431 20.5054L58.844 20.5072ZM8.84046 24.015C9.16197 24.1797 9.5391 24.6256 9.74365 25.084L10.0949 25.8714L13.8522 25.6924L13.7292 26.6627C13.5667 27.9462 13.494 27.9947 12.416 27.5233C11.9083 27.3014 10.4878 26.8711 9.25745 26.5652C6.3464 25.8437 5.98416 25.689 5.83523 25.1027C5.55928 24.018 7.4848 23.3208 8.84221 24.0154L8.84046 24.015ZM62.1418 24.6875C64.9898 25.4701 65.5667 31.9368 62.9254 33.4747C60.953 34.6226 58.4572 33.6454 57.872 31.4943C56.7091 27.2204 58.8637 23.7871 62.1418 24.6875ZM85.3917 24.6828C88.7005 25.5919 88.6331 32.9482 85.3081 33.8343C82.6349 34.5459 80.8561 32.7081 80.8697 29.2492C80.8845 25.6552 82.6055 23.9171 85.3922 24.6836L85.3917 24.6828Z" fill="#676767"/>
</svg>
